<svg width="16" height="16" viewBox="0 0 16 16" fill="none" xmlns="http://www.w3.org/2000/svg">
<path d="M8 0C6.912 0 5.872 0.207999 4.88 0.624C3.93067 1.02933 3.08533 1.60267 2.344 2.344C1.60267 3.08533 1.02933 3.93067 0.624 4.88C0.208 5.872 0 6.912 0 8C0 9.088 0.208 10.128 0.624 11.12C1.02933 12.0693 1.60267 12.9147 2.344 13.656C3.08533 14.3973 3.93067 14.9707 4.88 15.376C5.872 15.792 6.912 16 8 16C9.088 16 10.128 15.792 11.12 15.376C12.0693 14.9707 12.9147 14.3973 13.656 13.656C14.3973 12.9147 14.9707 12.0693 15.376 11.12C15.792 10.128 16 9.088 16 8C16 6.912 15.792 5.872 15.376 4.88C14.9707 3.93067 14.3973 3.08533 13.656 2.344C12.9147 1.60267 12.0693 1.02933 11.12 0.624C10.128 0.207999 9.088 0 8 0ZM11.888 5.808L7.888 10.816C7.792 10.9333 7.67467 10.992 7.536 10.992H7.504C7.36533 10.992 7.248 10.944 7.152 10.848L4.144 7.856C4.048 7.76 4 7.64267 4 7.504C4 7.36533 4.05067 7.248 4.152 7.152C4.25333 7.056 4.37067 7.008 4.504 7.008C4.63733 7.008 4.752 7.056 4.848 7.152L7.456 9.744L11.104 5.184C11.1893 5.07733 11.3013 5.016 11.44 5C11.5787 4.984 11.7013 5.01867 11.808 5.104C11.9147 5.18933 11.976 5.30133 11.992 5.44C12.008 5.57867 11.9733 5.70133 11.888 5.808Z" fill="#3B7902"/>
</svg>
