<svg width="16" height="16" viewBox="0 0 16 16" fill="none" xmlns="http://www.w3.org/2000/svg">
<path d="M15.92 7.744C15.632 7.264 15.2533 6.73067 14.784 6.144C13.8773 5.03467 12.9387 4.13333 11.968 3.44C10.624 2.48 9.30133 2 8 2C6.69867 2 5.376 2.48 4.032 3.44C3.06133 4.13333 2.12267 5.03467 1.216 6.144C0.746667 6.73067 0.368 7.264 0.08 7.744C0.0266667 7.81867 0 7.904 0 8C0 8.096 0.0266667 8.18133 0.08 8.256C0.368 8.736 0.746667 9.26933 1.216 9.856C2.12267 10.9653 3.06133 11.8667 4.032 12.56C5.376 13.52 6.69867 14 8 14C9.30133 14 10.624 13.52 11.968 12.56C12.9387 11.8667 13.8773 10.9653 14.784 9.856C15.2533 9.26933 15.632 8.736 15.92 8.256C15.9733 8.18133 16 8.096 16 8C16 7.904 15.9733 7.81867 15.92 7.744ZM8 12.992C6.99733 12.992 5.96267 12.64 4.896 11.936C4.08533 11.4027 3.27467 10.6827 2.464 9.776C1.96267 9.2 1.50933 8.608 1.104 8C1.50933 7.392 1.96267 6.8 2.464 6.224C3.27467 5.31733 4.08533 4.59733 4.896 4.064C5.96267 3.34933 6.99733 2.992 8 2.992C9.00267 2.992 10.0373 3.34933 11.104 4.064C11.9147 4.59733 12.7253 5.31733 13.536 6.224C14.0373 6.8 14.4907 7.392 14.896 8C14.4907 8.608 14.0373 9.2 13.536 9.776C12.7253 10.6827 11.9147 11.4027 11.104 11.936C10.0373 12.64 9.00267 12.992 8 12.992ZM8 4.992C7.456 4.992 6.95467 5.128 6.496 5.4C6.03733 5.672 5.67467 6.03733 5.408 6.496C5.14133 6.95467 5.008 7.456 5.008 8C5.008 8.544 5.14133 9.04533 5.408 9.504C5.67467 9.96267 6.03733 10.3253 6.496 10.592C6.95467 10.8587 7.456 10.992 8 10.992C8.544 10.992 9.04533 10.8587 9.504 10.592C9.96267 10.3253 10.328 9.96267 10.6 9.504C10.872 9.04533 11.008 8.544 11.008 8C11.008 7.456 10.872 6.95467 10.6 6.496C10.328 6.03733 9.96267 5.672 9.504 5.4C9.04533 5.128 8.544 4.992 8 4.992ZM8 10C7.63733 10 7.304 9.90933 7 9.728C6.696 9.54667 6.45333 9.304 6.272 9C6.09067 8.696 6 8.36267 6 8C6 7.63733 6.09067 7.304 6.272 7C6.45333 6.696 6.696 6.45333 7 6.272C7.304 6.09067 7.63733 6 8 6C8.36267 6 8.696 6.09067 9 6.272C9.304 6.45333 9.54667 6.696 9.728 7C9.90933 7.304 10 7.63733 10 8C10 8.36267 9.90933 8.696 9.728 9C9.54667 9.304 9.304 9.54667 9 9.728C8.696 9.90933 8.36267 10 8 10Z" fill="#3F2B2E"/>
</svg>
