<svg width="16" height="16" viewBox="0 0 16 16" fill="none" xmlns="http://www.w3.org/2000/svg">
<path d="M8 0C6.912 0 5.872 0.207999 4.88 0.624C3.93067 1.02933 3.08533 1.60267 2.344 2.344C1.60267 3.08533 1.02933 3.93067 0.624 4.88C0.208 5.872 0 6.912 0 8C0 9.088 0.208 10.128 0.624 11.12C1.02933 12.0693 1.60267 12.9147 2.344 13.656C3.08533 14.3973 3.93067 14.9707 4.88 15.376C5.872 15.792 6.912 16 8 16C9.088 16 10.128 15.792 11.12 15.376C12.0693 14.9707 12.9147 14.3973 13.656 13.656C14.3973 12.9147 14.9707 12.0693 15.376 11.12C15.792 10.128 16 9.088 16 8C16 6.912 15.792 5.872 15.376 4.88C14.9707 3.93067 14.3973 3.08533 13.656 2.344C12.9147 1.60267 12.0693 1.02933 11.12 0.624C10.128 0.207999 9.088 0 8 0ZM11.856 11.152C11.952 11.248 12 11.3653 12 11.504C12 11.6427 11.952 11.76 11.856 11.856C11.76 11.952 11.6427 12 11.504 12C11.3653 12 11.248 11.952 11.152 11.856L8 8.704L4.848 11.856C4.784 11.92 4.70933 11.9653 4.624 11.992C4.53867 12.0187 4.45333 12.0187 4.368 11.992C4.28267 11.9653 4.208 11.92 4.144 11.856C4.08 11.792 4.03467 11.7173 4.008 11.632C3.98133 11.5467 3.98133 11.4613 4.008 11.376C4.03467 11.2907 4.08 11.216 4.144 11.152L7.296 8L4.144 4.848C4.048 4.752 4 4.63733 4 4.504C4 4.37067 4.05067 4.256 4.152 4.16C4.25333 4.064 4.37067 4.01333 4.504 4.008C4.63733 4.00267 4.752 4.048 4.848 4.144L8 7.296L11.152 4.144C11.248 4.048 11.3627 4.00267 11.496 4.008C11.6293 4.01333 11.744 4.064 11.84 4.16C11.936 4.256 11.9867 4.37067 11.992 4.504C11.9973 4.63733 11.952 4.752 11.856 4.848L8.704 8L11.856 11.152Z" fill="#D0021B"/>
</svg>
