<svg width="24" height="24" viewBox="0 0 24 24" fill="none" xmlns="http://www.w3.org/2000/svg">
<path d="M12.672 19.008L6.816 23.88C6.72 23.96 6.616 24 6.504 24C6.424 24 6.352 23.984 6.288 23.952C6.096 23.856 6 23.704 6 23.496V19.008H3.504C2.864 19.008 2.276 18.848 1.74 18.528C1.204 18.208 0.78 17.78 0.468 17.244C0.156 16.708 0 16.128 0 15.504V3.504C0 2.864 0.156 2.276 0.468 1.74C0.78 1.204 1.204 0.780001 1.74 0.468C2.276 0.156 2.864 0 3.504 0H20.496C21.136 0 21.724 0.156 22.26 0.468C22.796 0.780001 23.22 1.204 23.532 1.74C23.844 2.276 24 2.864 24 3.504V15.504C24 16.128 23.844 16.708 23.532 17.244C23.22 17.78 22.796 18.208 22.26 18.528C21.724 18.848 21.136 19.008 20.496 19.008H12.672ZM22.992 3.504C22.992 3.056 22.88 2.64 22.656 2.256C22.432 1.872 22.128 1.568 21.744 1.344C21.36 1.12 20.944 1.008 20.496 1.008H3.504C3.056 1.008 2.64 1.12 2.256 1.344C1.872 1.568 1.568 1.872 1.344 2.256C1.12 2.64 1.008 3.056 1.008 3.504V15.504C1.008 15.952 1.12 16.368 1.344 16.752C1.568 17.136 1.872 17.44 2.256 17.664C2.64 17.888 3.056 18 3.504 18H6.504C6.632 18 6.748 18.048 6.852 18.144C6.956 18.24 7.008 18.36 7.008 18.504V22.44L12.168 18.12C12.264 18.04 12.376 18 12.504 18H20.496C20.944 18 21.36 17.888 21.744 17.664C22.128 17.44 22.432 17.136 22.656 16.752C22.88 16.368 22.992 15.952 22.992 15.504V3.504Z" fill="#3F2B2E"/>
</svg>
