<svg xmlns="http://www.w3.org/2000/svg" width="12" fill="currentColor" viewBox="0 0 24 24"><path fill-rule="evenodd" d="M22 8.5a.9.9 0 0 1-.9.9h-9.5a.9.9 0 1 1 0-1.8h9.5a.9.9 0 0 1 .9.9M7.4 8.5a.9.9 0 0 1-.9.9H2.9a.9.9 0 1 1 0-1.8h3.6a.9.9 0 0 1 .9.9" clip-rule="evenodd"></path><path fill-rule="evenodd" d="M9.15 9.7a1.45 1.45 0 1 0 0-2.9 1.45 1.45 0 0 0 0 2.9m0 1.8a3.25 3.25 0 1 0 0-6.5 3.25 3.25 0 0 0 0 6.5M22 15.5a.9.9 0 0 1-.9.9H18a.9.9 0 1 1 0-1.8h3.1a.9.9 0 0 1 .9.9M13.4 15.5a.9.9 0 0 1-.9.9H2.9a.9.9 0 1 1 0-1.8h9.6a.9.9 0 0 1 .9.9" clip-rule="evenodd"></path><path fill-rule="evenodd" d="M14.85 16.9a1.45 1.45 0 1 0 0-2.9 1.45 1.45 0 0 0 0 2.9m0 1.8a3.25 3.25 0 1 0 0-6.5 3.25 3.25 0 0 0 0 6.5" clip-rule="evenodd"></path></svg>