<svg width="24" height="24" viewBox="0 0 24 24" fill="none" xmlns="http://www.w3.org/2000/svg">
<path d="M19.962 8.65419C19.9513 7.98219 19.8287 7.33686 19.594 6.71819C19.3913 6.17419 19.0847 5.69686 18.674 5.28619C18.2633 4.87553 17.7913 4.56886 17.258 4.36619C16.6287 4.13153 15.978 4.00886 15.306 3.99819C14.858 3.97686 14.474 3.96619 14.154 3.96619C13.7593 3.95553 13.0447 3.95019 12.01 3.95019C10.9753 3.95019 10.2607 3.95553 9.86601 3.96619C9.54601 3.96619 9.16201 3.97686 8.71401 3.99819C8.04201 4.00886 7.39134 4.13153 6.76201 4.36619C6.22868 4.56886 5.75668 4.87553 5.34601 5.28619C4.93534 5.69686 4.62868 6.16886 4.42601 6.70219C4.19134 7.33153 4.06868 7.98219 4.05801 8.65419C4.03668 9.10219 4.02601 9.48619 4.02601 9.80619C4.01534 10.2009 4.01001 10.9155 4.01001 11.9502C4.01001 12.9849 4.01534 13.6995 4.02601 14.0942C4.02601 14.4142 4.03668 14.7982 4.05801 15.2462C4.06868 15.9182 4.19134 16.5689 4.42601 17.1982C4.62868 17.7315 4.93534 18.2035 5.34601 18.6142C5.75668 19.0249 6.23401 19.3315 6.77801 19.5342C7.39668 19.7689 8.04201 19.8915 8.71401 19.9022C9.16201 19.9235 9.54601 19.9342 9.86601 19.9342C10.2607 19.9449 10.9753 19.9502 12.01 19.9502C13.0447 19.9502 13.7593 19.9449 14.154 19.9342C14.474 19.9342 14.858 19.9235 15.306 19.9022C15.978 19.8915 16.6287 19.7689 17.258 19.5342C17.7913 19.3209 18.2607 19.0115 18.666 18.6062C19.0713 18.2009 19.3807 17.7262 19.594 17.1822C19.8287 16.5635 19.9513 15.9182 19.962 15.2462C19.9833 14.7982 19.994 14.4142 19.994 14.0942C20.0047 13.6995 20.01 12.9849 20.01 11.9502C20.01 10.9155 20.0047 10.2009 19.994 9.80619C19.994 9.48619 19.9833 9.10219 19.962 8.65419ZM18.522 15.1822C18.5113 15.6942 18.4207 16.1902 18.25 16.6702C18.1113 17.0222 17.9113 17.3289 17.65 17.5902C17.3887 17.8515 17.082 18.0515 16.73 18.1902C16.25 18.3609 15.754 18.4515 15.242 18.4622C14.794 18.4835 14.4153 18.4942 14.106 18.4942C13.7327 18.5049 13.034 18.5102 12.01 18.5102C10.986 18.5102 10.2873 18.5049 9.91401 18.4942C9.60468 18.4942 9.22601 18.4835 8.77801 18.4622C8.26601 18.4515 7.77001 18.3609 7.29001 18.1902C6.93801 18.0622 6.62868 17.8649 6.36201 17.5982C6.09534 17.3315 5.89801 17.0222 5.77001 16.6702C5.59934 16.1902 5.50868 15.6942 5.49801 15.1822C5.47668 14.7342 5.46601 14.3555 5.46601 14.0462C5.45534 13.6729 5.45001 12.9742 5.45001 11.9502C5.45001 10.9262 5.45534 10.2275 5.46601 9.85419C5.46601 9.54486 5.47668 9.16619 5.49801 8.71819C5.50868 8.20619 5.59934 7.71019 5.77001 7.23019C5.89801 6.87819 6.09534 6.56886 6.36201 6.30219C6.62868 6.03553 6.93801 5.83819 7.29001 5.71019C7.77001 5.53953 8.26601 5.44886 8.77801 5.43819C9.22601 5.41686 9.60468 5.40619 9.91401 5.40619C10.2873 5.39553 10.986 5.39019 12.01 5.39019C13.034 5.39019 13.7327 5.39553 14.106 5.40619C14.4153 5.40619 14.794 5.41686 15.242 5.43819C15.754 5.44886 16.25 5.53953 16.73 5.71019C17.082 5.83819 17.3913 6.03553 17.658 6.30219C17.9247 6.56886 18.122 6.87819 18.25 7.23019C18.4207 7.71019 18.5113 8.20619 18.522 8.71819C18.5433 9.16619 18.554 9.54486 18.554 9.85419C18.5647 10.2275 18.57 10.9262 18.57 11.9502C18.57 12.9742 18.5647 13.6729 18.554 14.0462C18.554 14.3555 18.5433 14.7342 18.522 15.1822ZM12.01 7.83819C11.178 7.83819 10.418 8.07019 9.73001 8.53419C9.04201 8.99819 8.53801 9.61419 8.21801 10.3822C7.89801 11.1502 7.81801 11.9395 7.97801 12.7502C8.13801 13.5609 8.51401 14.2622 9.10601 14.8542C9.69801 15.4462 10.3993 15.8222 11.21 15.9822C12.0207 16.1422 12.81 16.0622 13.578 15.7422C14.346 15.4222 14.962 14.9182 15.426 14.2302C15.89 13.5422 16.122 12.7822 16.122 11.9502C16.122 11.2035 15.938 10.5155 15.57 9.88619C15.202 9.25686 14.7033 8.75819 14.074 8.39019C13.4447 8.02219 12.7567 7.83819 12.01 7.83819ZM12.01 14.6222C11.466 14.6222 10.97 14.4702 10.522 14.1662C10.074 13.8622 9.74868 13.4622 9.54601 12.9662C9.34334 12.4702 9.29268 11.9582 9.39401 11.4302C9.49534 10.9022 9.73801 10.4462 10.122 10.0622C10.506 9.67819 10.962 9.43553 11.49 9.33419C12.018 9.23286 12.53 9.28353 13.026 9.48619C13.522 9.68886 13.922 10.0142 14.226 10.4622C14.53 10.9102 14.682 11.4062 14.682 11.9502C14.682 12.4302 14.562 12.8755 14.322 13.2862C14.082 13.6969 13.7567 14.0222 13.346 14.2622C12.9353 14.5022 12.49 14.6222 12.01 14.6222ZM17.242 7.67819C17.242 7.94486 17.1487 8.17153 16.962 8.35819C16.7753 8.54486 16.5487 8.63819 16.282 8.63819C16.0153 8.63819 15.7887 8.54486 15.602 8.35819C15.4153 8.17153 15.322 7.94486 15.322 7.67819C15.322 7.41153 15.4153 7.18486 15.602 6.99819C15.7887 6.81153 16.0153 6.71819 16.282 6.71819C16.5487 6.71819 16.7753 6.81153 16.962 6.99819C17.1487 7.18486 17.242 7.41153 17.242 7.67819Z" fill="#3A2C2E"/>
</svg>
