<svg width="24" height="24" viewBox="0 0 24 24" fill="none" xmlns="http://www.w3.org/2000/svg">
<path d="M22.6371 9.03758C21.367 8.57829 19.1595 8.19555 16.0145 7.88935C15.8179 6.58803 15.5458 5.43981 15.198 4.44468C14.82 3.373 14.3815 2.53862 13.8826 1.94155C13.3231 1.31385 12.7107 1 12.0455 1C11.0626 1 10.2159 1.66597 9.50527 2.99791C8.8551 4.20738 8.37882 5.83786 8.07642 7.88935C7.00288 7.9659 5.89155 8.10369 4.74242 8.30271C4.07714 8.40988 3.15481 8.5936 1.97544 8.85386L1.54451 8.94572H1.00019C0.985066 8.97634 1.89227 11.3264 3.72181 15.9958L6.46612 23H17.5341L23 9.12944L22.5237 8.92276L22.6371 9.03758ZM12.0455 2.0334C12.4235 2.0334 12.8015 2.27453 13.1795 2.75679C13.5575 3.23904 13.9128 3.92415 14.2454 4.81211C14.5781 5.70007 14.8502 6.72582 15.0619 7.88935H9.02898C9.21043 6.72582 9.45991 5.70007 9.77743 4.81211C10.095 3.92415 10.4503 3.24287 10.8434 2.76827C11.2365 2.29367 11.6372 2.05637 12.0455 2.05637V2.0334ZM16.9671 22.1273H7.12385L2.31564 9.88727C4.34174 9.41267 6.23176 9.09882 7.98569 8.94572C7.86473 10.3389 7.79669 11.3876 7.78157 12.0919H8.73414C8.73414 11.3417 8.7417 10.7905 8.75682 10.4384C8.78706 9.84134 8.84754 9.3055 8.93826 8.8309C9.22555 8.8309 9.69427 8.81559 10.3444 8.78497C11.0853 8.75435 11.6523 8.73904 12.0455 8.73904H15.1753C15.2963 10.1475 15.3568 11.2345 15.3568 12H16.3093C16.3093 11.2958 16.2942 10.7676 16.264 10.4154C16.2489 9.83368 16.1959 9.3055 16.1052 8.8309C18.2674 8.9993 20.1574 9.32081 21.7753 9.79541L16.8763 22.1273H16.9671Z" fill="#3F2B2E"/>
</svg>
