<svg width="24" height="24" viewBox="0 0 24 24" fill="none" xmlns="http://www.w3.org/2000/svg">
<path d="M11.9999 6C11.2799 6 10.6119 6.18 9.99594 6.54C9.37994 6.9 8.89194 7.384 8.53194 7.992C8.17194 8.6 7.99194 9.268 7.99194 9.996C7.99194 10.724 8.17194 11.392 8.53194 12C8.89194 12.608 9.37994 13.092 9.99594 13.452C10.6119 13.812 11.2799 13.992 11.9999 13.992C12.7199 13.992 13.3879 13.812 14.0039 13.452C14.6199 13.092 15.1079 12.608 15.4679 12C15.8279 11.392 16.0079 10.724 16.0079 9.996C16.0079 9.268 15.8279 8.6 15.4679 7.992C15.1079 7.384 14.6199 6.9 14.0039 6.54C13.3879 6.18 12.7199 6 11.9999 6ZM11.9999 13.008C11.4559 13.008 10.9559 12.872 10.4999 12.6C10.0439 12.328 9.67994 11.964 9.40794 11.508C9.13594 11.052 8.99994 10.552 8.99994 10.008C8.99994 9.464 9.13594 8.96 9.40794 8.496C9.67994 8.032 10.0439 7.668 10.4999 7.404C10.9559 7.14 11.4559 7.008 11.9999 7.008C12.5439 7.008 13.0439 7.14 13.4999 7.404C13.9559 7.668 14.3199 8.032 14.5919 8.496C14.8639 8.96 14.9999 9.464 14.9999 10.008C14.9999 10.552 14.8639 11.052 14.5919 11.508C14.3199 11.964 13.9559 12.328 13.4999 12.6C13.0439 12.872 12.5439 13.008 11.9999 13.008ZM11.9999 0C10.1919 0 8.51194 0.455999 6.95994 1.368C5.45594 2.248 4.25594 3.448 3.35994 4.968C2.44794 6.52 1.99194 8.2 1.99194 10.008C1.99194 11.768 2.47994 13.56 3.45594 15.384C4.25594 16.856 5.34394 18.312 6.71994 19.752C7.71194 20.792 8.82394 21.784 10.0559 22.728C10.6959 23.224 11.2559 23.624 11.7359 23.928C11.8159 23.976 11.9039 24 11.9999 24C12.0959 24 12.1839 23.976 12.2639 23.928C12.7439 23.624 13.3039 23.224 13.9439 22.728C15.1759 21.784 16.2879 20.792 17.2799 19.752C18.6559 18.312 19.7439 16.856 20.5439 15.384C21.5199 13.56 22.0079 11.768 22.0079 10.008C22.0079 8.2 21.5519 6.52 20.6399 4.968C19.7439 3.448 18.5439 2.248 17.0399 1.368C15.4879 0.455999 13.8079 0 11.9999 0ZM11.9999 22.896C10.9919 22.208 9.99194 21.416 8.99994 20.52C7.33594 19.032 5.99994 17.52 4.99194 15.984C3.66394 13.92 2.99994 11.928 2.99994 10.008C2.99994 8.376 3.40794 6.864 4.22394 5.472C5.02394 4.112 6.10394 3.032 7.46394 2.232C8.85594 1.416 10.3679 1.008 11.9999 1.008C13.6319 1.008 15.1439 1.416 16.5359 2.232C17.8959 3.032 18.9759 4.112 19.7759 5.472C20.5919 6.864 20.9999 8.376 20.9999 10.008C20.9999 11.928 20.3359 13.92 19.0079 15.984C17.9999 17.52 16.6639 19.032 14.9999 20.52C14.0079 21.416 13.0079 22.208 11.9999 22.896Z" fill="#3F2B2E"/>
</svg>
