<svg width="16" height="16" viewBox="0 0 16 16" fill="none" xmlns="http://www.w3.org/2000/svg">
<path d="M15.8558 15.1444C15.9518 15.2404 15.9998 15.3577 15.9998 15.4964C15.9998 15.6351 15.9518 15.7524 15.8558 15.8484C15.7598 15.9444 15.6425 15.9924 15.5038 15.9924C15.3651 15.9924 15.2478 15.9444 15.1518 15.8484L7.99979 8.69639L0.847793 15.8484C0.783793 15.9124 0.709126 15.9577 0.623793 15.9844C0.53846 16.0111 0.453126 16.0111 0.367793 15.9844C0.28246 15.9577 0.207793 15.9124 0.143793 15.8484C0.079793 15.7844 0.0344596 15.7097 0.00779297 15.6244C-0.0188737 15.5391 -0.0188737 15.4537 0.00779297 15.3684C0.0344596 15.2831 0.079793 15.2084 0.143793 15.1444L7.29579 7.99239L0.143793 0.840394C0.047793 0.744393 -0.000207031 0.629727 -0.000207031 0.496394C-0.000207031 0.36306 0.0504596 0.248394 0.151793 0.152393C0.253126 0.0563936 0.37046 0.00572681 0.503793 0.000392914C0.637126 -0.00494003 0.751793 0.0403938 0.847793 0.136394L7.99979 7.28839L15.1518 0.136394C15.2478 0.0403938 15.3625 -0.00494003 15.4958 0.000392914C15.6291 0.00572681 15.7438 0.0563936 15.8398 0.152393C15.9358 0.248394 15.9865 0.36306 15.9918 0.496394C15.9971 0.629727 15.9518 0.744393 15.8558 0.840394L8.70379 7.99239L15.8558 15.1444Z" fill="#01172D"/>
</svg>
