<svg xmlns="http://www.w3.org/2000/svg" xmlns:xlink="http://www.w3.org/1999/xlink" viewBox="0 0 66 66" width="66" height="66" preserveAspectRatio="xMidYMid meet" style="width: 100%; height: 100%; transform: translate3d(0px, 0px, 0px); content-visibility: visible;"><defs><clipPath id="__lottie_element_177"><rect width="66" height="66" x="0" y="0"></rect></clipPath><clipPath id="__lottie_element_179"><path d="M0,0 L108,0 L108,108 L0,108z"></path></clipPath><clipPath id="__lottie_element_198"><path d="M0,0 L66,0 L66,66 L0,66z"></path></clipPath><clipPath id="__lottie_element_205"><path d="M0,0 L66,0 L66,66 L0,66z"></path></clipPath></defs><g clip-path="url(#__lottie_element_177)"><g id="609" clip-path="url(#__lottie_element_205)" transform="matrix(0.9733631610870361,0,0,0.9733631610870361,0.8790168762207031,0.8790168762207031)" opacity="1" style="display: block;"><g id="678" transform="matrix(1,0,0,1,12.443000793457031,11.999998092651367)" opacity="1" style="display: block;"><g opacity="1" transform="matrix(1,0,0,1,20.902999877929688,20.530000686645508)"><path fill="rgb(46,51,55)" fill-opacity="1" d=" M11.46399974822998,-7.988999843597412 C11.46399974822998,-7.988999843597412 8.059000015258789,-7.988999843597412 8.059000015258789,-7.988999843597412 C6.428999900817871,-7.988999843597412 5.250999927520752,-9.529999732971191 5.693999767303467,-11.081000328063965 C5.693999767303467,-11.081000328063965 6.138999938964844,-12.633999824523926 6.138999938964844,-12.633999824523926 C7.236000061035156,-16.469999313354492 4.322000026702881,-20.280000686645508 0.29100000858306885,-20.280000686645508 C-1.7400000095367432,-20.280000686645508 -3.638000011444092,-19.274999618530273 -4.764999866485596,-17.604000091552734 C-4.764999866485596,-17.604000091552734 -11.699999809265137,-7.315000057220459 -11.699999809265137,-7.315000057220459 C-12.109999656677246,-6.708000183105469 -12.418999671936035,-6.048999786376953 -12.654999732971191,-5.366000175476074 C-12.654999732971191,-5.366000175476074 -16.608999252319336,-5.366000175476074 -16.608999252319336,-5.366000175476074 C-18.843000411987305,-5.366000175476074 -20.652999877929688,-3.575000047683716 -20.652999877929688,-1.3660000562667847 C-20.652999877929688,-1.3660000562667847 -20.652999877929688,16.280000686645508 -20.652999877929688,16.280000686645508 C-20.652999877929688,18.489999771118164 -18.843000411987305,20.280000686645508 -16.608999252319336,20.280000686645508 C-16.608999252319336,20.280000686645508 -8.303999900817871,20.280000686645508 -8.303999900817871,20.280000686645508 C-8.303999900817871,20.280000686645508 -8.303999900817871,20.27400016784668 -8.303999900817871,20.27400016784668 C-8.303999900817871,20.27400016784668 9.260000228881836,20.27400016784668 9.260000228881836,20.27400016784668 C13.34000015258789,20.27400016784668 16.843000411987305,17.4060001373291 17.604999542236328,13.442000389099121 C17.604999542236328,13.442000389099121 19.808000564575195,1.9789999723434448 19.808000564575195,1.9789999723434448 C20.80299949645996,-3.196000099182129 16.791000366210938,-7.988999843597412 11.46399974822998,-7.988999843597412z M-13.156999588012695,15.479999542236328 C-13.156999588012695,15.479999542236328 -15.798999786376953,15.479999542236328 -15.798999786376953,15.479999542236328 C-15.798999786376953,15.479999542236328 -15.798999786376953,-0.5669999718666077 -15.798999786376953,-0.5669999718666077 C-15.798999786376953,-0.5669999718666077 -13.156999588012695,-0.5669999718666077 -13.156999588012695,-0.5669999718666077 C-13.156999588012695,-0.5669999718666077 -13.156999588012695,15.479999542236328 -13.156999588012695,15.479999542236328z M15.039999961853027,1.0829999446868896 C15.039999961853027,1.0829999446868896 12.836999893188477,12.545999526977539 12.836999893188477,12.545999526977539 C12.510000228881836,14.244999885559082 11.008999824523926,15.473999977111816 9.260000228881836,15.473999977111816 C9.260000228881836,15.473999977111816 -8.27299976348877,15.473999977111816 -8.27299976348877,15.473999977111816 C-8.27299976348877,15.473999977111816 -8.27299976348877,-2.6549999713897705 -8.27299976348877,-2.6549999713897705 C-8.27299976348877,-3.365999937057495 -8.060999870300293,-4.060999870300293 -7.6620001792907715,-4.6519999504089355 C-7.6620001792907715,-4.6519999504089355 -0.7260000109672546,-14.940999984741211 -0.7260000109672546,-14.940999984741211 C-0.49900001287460327,-15.277000427246094 -0.11800000071525574,-15.479999542236328 0.29100000858306885,-15.479999542236328 C1.1030000448226929,-15.479999542236328 1.6890000104904175,-14.713000297546387 1.468000054359436,-13.940999984741211 C1.468000054359436,-13.940999984741211 1.0240000486373901,-12.387999534606934 1.0240000486373901,-12.387999534606934 C-0.29600000381469727,-7.7729997634887695 3.2100000381469727,-3.188999891281128 8.059000015258789,-3.188999891281128 C8.059000015258789,-3.188999891281128 11.46399974822998,-3.188999891281128 11.46399974822998,-3.188999891281128 C13.746999740600586,-3.188999891281128 15.465999603271484,-1.1349999904632568 15.039999961853027,1.0829999446868896z"></path></g></g></g><g id="610" clip-path="url(#__lottie_element_198)" transform="matrix(0.018386995419859886,0,0,0.018386995419859886,32.39323043823242,32.39323043823242)" opacity="1" style="display: block;"><g id="590" transform="matrix(0.6899999976158142,0,0,0.6899999976158142,8.40999984741211,7.784999847412109)" opacity="1" style="display: block;"><g opacity="1" transform="matrix(1,0,0,1,44.125999450683594,35.994998931884766)"><path fill="rgb(0,158,205)" fill-opacity="1" d=" M9.666000366210938,-10.526000022888184 C9.666000366210938,-10.526000022888184 4.814000129699707,-10.526000022888184 4.814000129699707,-10.526000022888184 C1.9179999828338623,-10.526000022888184 -0.17499999701976776,-13.263999938964844 0.6119999885559082,-16.020000457763672 C0.6119999885559082,-16.020000457763672 1.2450000047683716,-18.23200035095215 1.2450000047683716,-18.23200035095215 C2.6519999504089355,-23.152999877929688 -1.0839999914169312,-28.038999557495117 -6.25600004196167,-28.038999557495117 C-8.862000465393066,-28.038999557495117 -11.293999671936035,-26.75 -12.739999771118164,-24.606000900268555 C-12.739999771118164,-24.606000900268555 -20.99799919128418,-12.354999542236328 -20.99799919128418,-12.354999542236328 C-21.66699981689453,-11.36400032043457 -22.023000717163086,-10.196999549865723 -22.023000717163086,-9.001999855041504 C-22.023000717163086,-9.001999855041504 -22.023000717163086,22.038999557495117 -22.023000717163086,22.038999557495117 C-22.023000717163086,25.35300064086914 -19.336999893188477,28.038999557495117 -16.023000717163086,28.038999557495117 C-16.023000717163086,28.038999557495117 6.525000095367432,28.038999557495117 6.525000095367432,28.038999557495117 C11.923999786376953,28.038999557495117 16.55900001525879,24.243999481201172 17.566999435424805,19 C17.566999435424805,19 20.707000732421875,2.6659998893737793 20.707000732421875,2.6659998893737793 C22.023000717163086,-4.183000087738037 16.71500015258789,-10.526000022888184 9.666000366210938,-10.526000022888184z"></path></g><g opacity="1" transform="matrix(1,0,0,1,11.833999633789062,46.19900131225586)"><path fill="rgb(0,158,205)" fill-opacity="1" d=" M-4.868000030517578,-12.145000457763672 C-4.868000030517578,-12.145000457763672 -4.868000030517578,12.145000457763672 -4.868000030517578,12.145000457763672 C-4.868000030517578,15.293000221252441 -2.2880001068115234,17.844999313354492 0.8949999809265137,17.844999313354492 C0.8949999809265137,17.844999313354492 4.868000030517578,17.844999313354492 4.868000030517578,17.844999313354492 C4.868000030517578,17.844999313354492 4.868000030517578,-17.844999313354492 4.868000030517578,-17.844999313354492 C4.868000030517578,-17.844999313354492 0.8949999809265137,-17.844999313354492 0.8949999809265137,-17.844999313354492 C-2.2880001068115234,-17.844999313354492 -4.868000030517578,-15.293000221252441 -4.868000030517578,-12.145000457763672z"></path></g></g></g><g id="611" clip-path="url(#__lottie_element_179)" transform="matrix(0.6000000238418579,0,0,0.6000000238418579,0.5999984741210938,0.5999984741210938)" opacity="1" style="display: block;"><g id="732" transform="matrix(1,0,0,1,54,79.25)" opacity="1" style="display: block;"><g opacity="1" transform="matrix(1,0,0,1,0,-0.875)"><path stroke-linecap="round" stroke-linejoin="miter" fill-opacity="0" stroke-miterlimit="4" stroke="rgb(0,158,205)" stroke-opacity="1" stroke-width="7" d="M0 0"></path></g></g><g id="733" transform="matrix(0.7071067690849304,0.7071067690849304,-0.7071067690849304,0.7071067690849304,37.02943801879883,72.22056579589844)" opacity="1" style="display: block;"><g opacity="1" transform="matrix(1,0,0,1,0,-0.875)"><path stroke-linecap="round" stroke-linejoin="miter" fill-opacity="0" stroke-miterlimit="4" stroke="rgb(0,158,205)" stroke-opacity="1" stroke-width="7" d="M0 0"></path></g></g><g id="734" transform="matrix(0.7071067690849304,-0.7071067690849304,0.7071067690849304,0.7071067690849304,70.97056579589844,72.22056579589844)" opacity="1" style="display: block;"><g opacity="1" transform="matrix(1,0,0,1,0,-0.875)"><path stroke-linecap="round" stroke-linejoin="miter" fill-opacity="0" stroke-miterlimit="4" stroke="rgb(0,158,205)" stroke-opacity="1" stroke-width="7" d="M0 0"></path></g></g><g id="735" transform="matrix(0,-1,1,0,78,55.25)" opacity="1" style="display: block;"><g opacity="1" transform="matrix(1,0,0,1,0,-0.875)"><path stroke-linecap="round" stroke-linejoin="miter" fill-opacity="0" stroke-miterlimit="4" stroke="rgb(0,158,205)" stroke-opacity="1" stroke-width="7" d="M0 0"></path></g></g><g id="736" transform="matrix(0,1,-1,0,30,55.25)" opacity="1" style="display: block;"><g opacity="1" transform="matrix(1,0,0,1,0,-0.875)"><path stroke-linecap="round" stroke-linejoin="miter" fill-opacity="0" stroke-miterlimit="4" stroke="rgb(0,158,205)" stroke-opacity="1" stroke-width="7" d="M0 0"></path></g></g></g></g></svg>