<svg width="129" height="217" viewBox="0 0 129 217" fill="none" xmlns="http://www.w3.org/2000/svg">
<g clip-path="url(#clip0_339_27)">
<path d="M110.004 155.747C110.532 154.589 111.24 153.605 112.128 152.793C113.016 151.979 114.043 151.351 115.207 150.907C116.373 150.463 117.592 150.24 118.864 150.24C120.139 150.24 121.358 150.463 122.522 150.907C123.686 151.351 124.713 151.979 125.601 152.793C126.489 153.605 127.199 154.589 127.726 155.747C128.254 156.903 128.518 158.194 128.518 159.618C128.518 161.06 128.254 162.357 127.726 163.515C127.199 164.671 126.489 165.659 125.601 166.481C124.713 167.302 123.686 167.93 122.522 168.365C121.358 168.801 120.139 169.02 118.864 169.02C117.592 169.02 116.373 168.801 115.207 168.365C114.043 167.93 113.016 167.302 112.128 166.481C111.24 165.659 110.532 164.671 110.004 163.515C109.477 162.357 109.213 161.06 109.213 159.618C109.213 158.194 109.477 156.903 110.004 155.747ZM112.328 162.584C112.697 163.488 113.2 164.272 113.838 164.935C114.474 165.598 115.223 166.111 116.086 166.481C116.95 166.85 117.876 167.034 118.865 167.034C119.836 167.034 120.755 166.85 121.618 166.481C122.482 166.111 123.23 165.598 123.868 164.935C124.505 164.272 125.012 163.488 125.388 162.584C125.765 161.68 125.953 160.69 125.953 159.618C125.953 158.546 125.765 157.56 125.388 156.664C125.012 155.768 124.505 154.993 123.868 154.338C123.23 153.685 122.481 153.174 121.618 152.806C120.755 152.437 119.836 152.253 118.865 152.253C117.876 152.253 116.95 152.437 116.086 152.806C115.223 153.174 114.474 153.685 113.838 154.338C113.2 154.993 112.697 155.768 112.328 156.664C111.96 157.56 111.776 158.546 111.776 159.618C111.776 160.69 111.96 161.68 112.328 162.584ZM119.092 154.338C120.415 154.338 121.432 154.573 122.146 155.042C122.858 155.512 123.214 156.316 123.214 157.456C123.214 157.943 123.142 158.358 123.001 158.699C122.858 159.043 122.661 159.325 122.41 159.542C122.158 159.761 121.866 159.929 121.53 160.045C121.195 160.162 120.835 160.238 120.448 160.271L123.265 164.871H121.078L118.513 160.373H117.205V164.871H115.119V154.338H119.092ZM119.067 158.738C119.669 158.738 120.164 158.654 120.548 158.487C120.935 158.319 121.127 157.918 121.127 157.28C121.127 156.995 121.06 156.768 120.927 156.6C120.792 156.435 120.62 156.304 120.411 156.212C120.2 156.12 119.967 156.056 119.707 156.023C119.448 155.989 119.2 155.972 118.965 155.972H117.205V158.738H119.067Z" fill="black"/>
<path d="M37.363 62.2253H64.0048C70.4889 62.2253 79.0272 62.2253 83.4503 64.8999C88.2857 67.7802 92.0886 73.0263 92.0886 80.2296C92.0886 88.0463 87.9784 93.9096 81.1871 96.685V96.8923C90.2438 98.7422 95.1776 105.534 95.1776 114.588C95.1776 125.385 87.4605 135.675 72.855 135.675H37.363V62.2253ZM47.1304 93.8068H66.686C77.7915 93.8068 82.3227 89.7951 82.3227 82.078C82.3227 71.8929 75.1246 70.4555 66.686 70.4555H47.1304V93.8068ZM47.1304 127.444H71.6213C80.0546 127.444 85.407 122.301 85.407 114.279C85.407 104.71 77.6907 102.036 69.4571 102.036H47.1306L47.1304 127.444Z" fill="black"/>
<path d="M120.165 98.9805C120.165 129.838 95.1538 154.851 64.2894 154.851C33.425 154.851 8.42513 129.838 8.42513 98.9805C8.42513 68.1233 33.4372 43.1182 64.2894 43.1182C95.1416 43.1182 120.165 68.1273 120.165 98.9805ZM64.2894 34.5967C28.7526 34.5967 -0.0594482 63.4087 -0.0594482 98.9495C-0.0594482 134.49 28.7526 163.302 64.2894 163.302C99.8262 163.302 128.651 134.488 128.651 98.9495C128.651 63.4107 99.8382 34.5967 64.2894 34.5967Z" fill="black"/>
<path d="M128.518 176.876H0.0737305V185.319H128.518V176.876Z" fill="black"/>
<path d="M15.6396 6.30035C15.3341 5.81235 14.9556 5.38421 14.4999 5.01581C14.044 4.64647 13.53 4.36007 12.9553 4.15301C12.3791 3.94767 11.7785 3.84447 11.1494 3.84447C10.0002 3.84447 9.02344 4.06634 8.22117 4.51128C7.41916 4.95674 6.76809 5.55275 6.26982 6.30035C5.77075 7.04822 5.40782 7.89996 5.17955 8.85396C4.95115 9.8089 4.83875 10.796 4.83875 11.8153C4.83875 12.7898 4.95115 13.7393 5.17955 14.6603C5.40782 15.5828 5.77075 16.4125 6.26982 17.1501C6.76809 17.8868 7.41916 18.4773 8.22117 18.9228C9.02344 19.3668 10.0002 19.5888 11.1494 19.5888C12.7113 19.5888 13.9313 19.1125 14.8084 18.1584C15.6869 17.2036 16.2237 15.9464 16.4189 14.3855H21.364C21.2342 15.8371 20.8979 17.15 20.3564 18.3197C19.8134 19.4918 19.097 20.49 18.209 21.3126C17.3195 22.1376 16.2789 22.7666 15.0853 23.2002C13.8929 23.6332 12.5807 23.8512 11.1494 23.8512C9.37051 23.8512 7.7709 23.5419 6.35089 22.9232C4.93075 22.3059 3.73115 21.4543 2.75661 20.3696C1.78127 19.2856 1.03207 18.012 0.511529 16.5479C-0.00953988 15.0844 -0.269409 13.5061 -0.269409 11.8152C-0.269409 10.0796 -0.00953988 8.4689 0.511529 6.98275C1.03193 5.49741 1.78114 4.20167 2.75661 3.09633C3.73115 1.98966 4.93075 1.12286 6.35089 0.49312C7.7709 -0.135149 9.37051 -0.449951 11.1494 -0.449951C12.4287 -0.449951 13.6387 -0.264882 14.7761 0.10272C15.9151 0.471922 16.9345 1.00872 17.8341 1.71406C18.7339 2.4186 19.4771 3.29153 20.062 4.33207C20.6483 5.37275 21.0167 6.56622 21.1687 7.90996H16.2236C16.1369 7.32516 15.9419 6.78849 15.6396 6.30035Z" fill="black"/>
<path d="M28.0235 19.2968C28.717 19.9684 29.7151 20.3044 31.0163 20.3044C31.9493 20.3044 32.7513 20.0714 33.4237 19.6048C34.0952 19.1394 34.5076 18.6458 34.6604 18.1248H38.7271C38.0752 20.1424 37.0778 21.5852 35.7333 22.452C34.3882 23.3195 32.7618 23.7531 30.8537 23.7531C29.5305 23.7531 28.3378 23.5421 27.2758 23.1193C26.2125 22.6959 25.3127 22.0945 24.575 21.3128C23.8383 20.5329 23.2675 19.6 22.867 18.5161C22.4652 17.4321 22.2655 16.2388 22.2655 14.9374C22.2655 13.6805 22.4716 12.5082 22.8834 11.4243C23.2952 10.3397 23.8816 9.40219 24.6397 8.61018C25.4002 7.81911 26.3054 7.19564 27.357 6.74071C28.4087 6.28404 29.5737 6.05737 30.8538 6.05737C32.285 6.05737 33.5317 6.33364 34.5953 6.88631C35.6573 7.43978 36.531 8.18205 37.2134 9.11472C37.8966 10.0475 38.3903 11.1103 38.694 12.303C38.9964 13.4955 39.1049 14.7432 39.0184 16.0437H26.8855C26.9502 17.54 27.3285 18.6246 28.0235 19.2968ZM33.2449 10.4482C32.6914 9.84206 31.85 9.53739 30.7227 9.53739C29.9861 9.53739 29.3726 9.66272 28.8855 9.91139C28.3974 10.161 28.007 10.4697 27.7142 10.8379C27.4214 11.2079 27.2151 11.5977 27.0954 12.0109C26.9766 12.4226 26.9057 12.7901 26.8853 13.1161H34.3997C34.1832 11.9438 33.7974 11.055 33.2449 10.4482Z" fill="black"/>
<path d="M45.4917 6.51233V9.63581H45.5572C45.7737 9.11461 46.0664 8.63221 46.4349 8.18727C46.804 7.74327 47.2268 7.36313 47.7039 7.04833C48.1809 6.735 48.6909 6.4902 49.2341 6.3162C49.7757 6.14313 50.3393 6.05713 50.9251 6.05713C51.2288 6.05713 51.5635 6.11153 51.9342 6.21926V10.5126C51.7154 10.4694 51.4564 10.4324 51.1517 10.3993C50.8487 10.367 50.5551 10.3505 50.274 10.3505C49.4277 10.3505 48.7129 10.4921 48.1273 10.774C47.5408 11.055 47.0695 11.44 46.712 11.928C46.3547 12.4161 46.0988 12.9852 45.9476 13.6362C45.7956 14.2865 45.72 14.9917 45.72 15.75V23.3304H41.1001V6.51233H45.4917Z" fill="black"/>
<path d="M64.296 6.51233V9.60195H60.9112V17.9295C60.9112 18.712 61.0425 19.2313 61.3033 19.4919C61.563 19.7517 62.0841 19.8824 62.8625 19.8824C63.1232 19.8824 63.3733 19.8715 63.6112 19.8493C63.849 19.828 64.0773 19.7957 64.296 19.7517V23.3303C63.9056 23.3956 63.4694 23.4381 62.9932 23.4593C62.5169 23.4815 62.0509 23.4932 61.5944 23.4932C60.8797 23.4932 60.2004 23.4444 59.5612 23.346C58.921 23.2491 58.3592 23.0601 57.8703 22.7775C57.3822 22.4949 56.9974 22.0943 56.7147 21.5732C56.4322 21.0528 56.2934 20.3696 56.2934 19.5249V9.60168H53.495V6.51206H56.2934V1.46924H60.9112V6.51206L64.296 6.51233Z" fill="black"/>
<path d="M66.9861 3.9096V0.102783H71.6058V3.9096H66.9861ZM71.6058 6.51215V23.3302H66.9861V6.51215H71.6058Z" fill="black"/>
<path d="M73.4364 9.60174V6.51213H76.2018V5.21012C76.2018 3.71451 76.6679 2.4889 77.6007 1.5357C78.5326 0.580762 79.944 0.103027 81.8303 0.103027C82.2404 0.103027 82.6544 0.119427 83.0669 0.152494C83.4763 0.184894 83.8786 0.213028 84.2682 0.233562V3.68225C83.7266 3.61611 83.1622 3.58384 82.5772 3.58384C81.9491 3.58384 81.498 3.73024 81.228 4.02291C80.9572 4.31571 80.8219 4.80932 80.8219 5.50372V6.51213H84.0082V9.60174H80.8219V23.3302H76.2018V9.60174H73.4364Z" fill="black"/>
<path d="M87.1403 3.9096V0.102783H91.7601V3.9096H87.1403ZM91.7601 6.51215V23.3302H87.1403V6.51215H91.7601Z" fill="black"/>
<path d="M99.0454 19.2968C99.7406 19.9684 100.739 20.3044 102.038 20.3044C102.971 20.3044 103.773 20.0714 104.446 19.6048C105.119 19.1394 105.531 18.6458 105.682 18.1248H109.747C109.099 20.1424 108.1 21.5852 106.758 22.452C105.409 23.3195 103.784 23.7531 101.876 23.7531C100.551 23.7531 99.3597 23.5421 98.2978 23.1193C97.235 22.6959 96.3336 22.0945 95.5978 21.3128C94.86 20.5329 94.291 19.6 93.8895 18.5161C93.4895 17.4321 93.2874 16.2388 93.2874 14.9374C93.2874 13.6805 93.4952 12.5082 93.906 11.4243C94.3186 10.3397 94.9026 9.40219 95.6631 8.61018C96.4219 7.81911 97.3271 7.19564 98.379 6.74071C99.4306 6.28404 100.596 6.05737 101.876 6.05737C103.308 6.05737 104.555 6.33364 105.618 6.88631C106.681 7.43978 107.553 8.18205 108.237 9.11472C108.919 10.0475 109.412 11.1103 109.714 12.303C110.02 13.4955 110.127 14.7432 110.042 16.0437H97.9082C97.9727 17.54 98.3522 18.6246 99.0454 19.2968ZM104.266 10.4482C103.714 9.84206 102.872 9.53739 101.746 9.53739C101.008 9.53739 100.397 9.66272 99.9082 9.91139C99.4194 10.161 99.0298 10.4697 98.7369 10.8379C98.4441 11.2079 98.2378 11.5977 98.118 12.0109C98 12.4226 97.9292 12.7901 97.9079 13.1161H105.421C105.207 11.9438 104.821 11.055 104.266 10.4482Z" fill="black"/>
<path d="M124.063 21.1829C123.519 22.0944 122.809 22.7509 121.93 23.1509C121.054 23.5522 120.062 23.753 118.955 23.753C117.695 23.753 116.591 23.5098 115.638 23.0209C114.683 22.5337 113.896 21.8725 113.278 21.0372C112.659 20.2029 112.192 19.2433 111.879 18.1585C111.565 17.0745 111.409 15.9465 111.409 14.7753C111.409 13.6479 111.565 12.5578 111.879 11.5059C112.192 10.4535 112.659 9.52696 113.278 8.72336C113.896 7.92282 114.672 7.27655 115.604 6.78842C116.537 6.30028 117.621 6.05695 118.858 6.05695C119.855 6.05695 120.804 6.26721 121.702 6.69068C122.603 7.11335 123.314 7.73669 123.835 8.56109H123.899V0.102783H128.518V23.3301H124.127V21.1826L124.063 21.1829ZM123.866 12.871C123.737 12.2318 123.513 11.6682 123.2 11.1795C122.886 10.6922 122.479 10.297 121.98 9.99243C121.481 9.6887 120.853 9.53736 120.094 9.53736C119.335 9.53736 118.694 9.68856 118.174 9.99243C117.654 10.297 117.235 10.697 116.92 11.1968C116.607 11.6959 116.38 12.265 116.239 12.9042C116.097 13.5443 116.029 14.2111 116.029 14.9053C116.029 15.5547 116.103 16.2057 116.254 16.8567C116.406 17.5078 116.651 18.0877 116.986 18.5973C117.324 19.1081 117.745 19.5189 118.257 19.8331C118.765 20.1487 119.379 20.3045 120.094 20.3045C120.853 20.3045 121.487 20.1542 121.997 19.8496C122.506 19.5457 122.914 19.1395 123.218 18.6295C123.519 18.1203 123.737 17.5399 123.866 16.8898C123.997 16.2387 124.063 15.5666 124.063 14.873C124.063 14.1794 123.997 13.5118 123.866 12.871Z" fill="black"/>
<path d="M11.341 201.896C11.1085 200.269 9.55156 199.032 7.76448 199.032C4.53646 199.032 3.32019 201.783 3.32019 204.647C3.32019 207.37 4.53646 210.12 7.76448 210.12C9.96209 210.12 11.2056 208.608 11.4742 206.454H14.9623C14.5936 210.533 11.7757 213.143 7.76448 213.143C2.70392 213.143 -0.27356 209.363 -0.27356 204.647C-0.27356 199.789 2.70392 196.009 7.76448 196.009C11.3622 196.009 14.3844 198.117 14.8221 201.896L11.341 201.896Z" fill="black"/>
<path d="M22.4701 200.592C26.2048 200.592 28.6097 203.062 28.6097 206.845C28.6097 210.601 26.2048 213.075 22.4701 213.075C18.7588 213.075 16.3546 210.601 16.3546 206.845C16.3546 203.062 18.7588 200.592 22.4701 200.592ZM22.4701 210.623C24.6917 210.623 25.3551 208.721 25.3551 206.844C25.3551 204.944 24.6917 203.042 22.4701 203.042C20.2718 203.042 19.6038 204.944 19.6038 206.844C19.6038 208.721 20.272 210.623 22.4701 210.623Z" fill="black"/>
<path d="M30.6168 200.891H33.7055V203.089H33.7532C34.346 201.601 35.9515 200.571 37.535 200.571C37.7637 200.571 38.0362 200.615 38.2459 200.683V203.707C37.943 203.639 37.4653 203.596 37.0767 203.596C34.6914 203.596 33.8652 205.314 33.8652 207.396V212.734H30.6168V200.891Z" fill="black"/>
<path d="M39.5159 200.912H42.61V202.422H42.6546C43.4322 201.164 44.7142 200.592 46.1794 200.592C49.8938 200.592 51.5618 203.591 51.5618 206.957C51.5618 210.12 49.8247 213.075 46.3634 213.075C44.9443 213.075 43.5942 212.456 42.815 211.288H42.7672V216.923H39.5157L39.5159 200.912ZM48.3105 206.869C48.3105 204.986 47.5539 203.043 45.4706 203.043C43.3406 203.043 42.6546 204.944 42.6546 206.869C42.6546 208.791 43.3868 210.623 45.4942 210.623C47.6267 210.623 48.3105 208.791 48.3105 206.869Z" fill="black"/>
<path d="M58.7012 200.592C62.4368 200.592 64.8457 203.062 64.8457 206.845C64.8457 210.601 62.4367 213.075 58.7012 213.075C54.9924 213.075 52.5881 210.601 52.5881 206.845C52.5881 203.062 54.9923 200.592 58.7012 200.592ZM58.7012 210.623C60.9238 210.623 61.5894 208.721 61.5894 206.844C61.5894 204.944 60.9238 203.042 58.7012 203.042C56.5054 203.042 55.8389 204.944 55.8389 206.844C55.8389 208.721 56.5054 210.623 58.7012 210.623Z" fill="black"/>
<path d="M66.8528 200.891H69.9445V203.089H69.9939C70.5857 201.601 72.1896 200.571 73.7702 200.571C73.9987 200.571 74.2751 200.615 74.4811 200.683V203.707C74.1836 203.639 73.7011 203.596 73.3127 203.596C70.9304 203.596 70.1051 205.314 70.1051 207.396V212.734H66.8527L66.8528 200.891Z" fill="black"/>
<path d="M75.4358 204.554C75.6222 201.506 78.3459 200.592 81.0037 200.592C83.3617 200.592 86.2054 201.118 86.2054 203.956V210.12C86.2054 211.198 86.3166 212.273 86.6204 212.755H83.3172C83.206 212.386 83.1104 211.999 83.0855 211.608C82.058 212.687 80.5475 213.075 79.1033 213.075C76.8581 213.075 75.0725 211.954 75.0725 209.523C75.0725 206.845 77.0914 206.204 79.1033 205.928C81.0971 205.629 82.954 205.699 82.954 204.368C82.954 202.974 81.9867 202.767 80.8449 202.767C79.6067 202.767 78.8072 203.27 78.6897 204.554L75.4358 204.554ZM82.954 206.957C82.4001 207.442 81.2576 207.459 80.2481 207.646C79.2404 207.848 78.324 208.197 78.324 209.387C78.324 210.601 79.2639 210.896 80.3195 210.896C82.8584 210.896 82.954 208.884 82.954 208.172V206.957Z" fill="black"/>
<path d="M92.7747 200.912H95.1586V203.088H92.7747V208.948C92.7747 210.052 93.0519 210.326 94.1483 210.326C94.4928 210.326 94.8147 210.302 95.1586 210.236V212.778C94.6056 212.87 93.8946 212.893 93.254 212.893C91.2664 212.893 89.5248 212.431 89.5248 210.073V203.088H87.5521V200.912H89.5248V197.359H92.7747V200.912Z" fill="black"/>
<path d="M100.865 199.078H97.6117V196.397H100.865V199.078ZM97.6117 200.912H100.865V212.755H97.6117V200.912Z" fill="black"/>
<path d="M109.162 200.592C112.898 200.592 115.308 203.062 115.308 206.845C115.308 210.601 112.898 213.075 109.162 213.075C105.454 213.075 103.051 210.601 103.051 206.845C103.051 203.062 105.454 200.592 109.162 200.592ZM109.162 210.623C111.389 210.623 112.051 208.721 112.051 206.844C112.051 204.944 111.389 203.042 109.162 203.042C106.964 203.042 106.299 204.944 106.299 206.844C106.299 208.721 106.964 210.623 109.162 210.623Z" fill="black"/>
<path d="M117.409 200.912H120.502V202.562H120.57C121.395 201.232 122.815 200.592 124.191 200.592C127.649 200.592 128.518 202.538 128.518 205.47V212.755H125.267V206.065C125.267 204.118 124.692 203.154 123.184 203.154C121.416 203.154 120.661 204.141 120.661 206.548V212.755H117.409L117.409 200.912Z" fill="black"/>
</g>
<defs>
<clipPath id="clip0_339_27">
<rect width="129" height="217" fill="white"/>
</clipPath>
</defs>
</svg>
