<svg width="180" height="60" viewBox="0 0 180 60" fill="none" xmlns="http://www.w3.org/2000/svg">
<path d="M18.9228 29.1979C17.6558 32.0347 17.2154 32.1725 14.1585 32.1725C11.9554 32.1725 11.5137 31.9523 11.1841 31.5658C10.7708 31.0986 10.7154 30.1071 10.7154 28.7291V19.0615C10.7154 16.1978 10.9624 16.1154 12.2579 15.9221L12.8632 15.8111C13.0849 15.6734 13.0564 15.1237 12.8091 15.013C11.596 15.0684 10.3574 15.0954 9.14566 15.0954C7.87865 15.0954 6.63999 15.0684 5.26213 15.013C5.01509 15.1237 5.01509 15.6734 5.2067 15.8111L5.97802 15.9221C7.2735 16.1154 7.52077 16.1978 7.52077 19.0615V29.3073C7.52077 32.1725 7.2735 32.2547 5.97802 32.4195L5.15128 32.5574C4.90413 32.6951 4.98651 33.2463 5.2067 33.3572C6.36449 33.3018 7.74084 33.2733 9.14566 33.2733H12.0093C15.0947 33.2733 17.4641 33.3018 18.6204 33.3572C18.9513 32.6127 19.5578 30.5189 19.7765 29.3626C19.6402 29.1425 19.1984 29.0602 18.9228 29.1979Z" fill="#3F2B2E"/>
<path d="M19.6156 13.9942C18.3769 13.9942 18.046 14.8194 18.046 15.2882C18.046 15.8947 18.4861 16.2258 18.8996 16.2796C19.5617 16.362 20.3869 16.8041 20.3869 17.7113C20.3869 18.9247 19.34 19.7231 18.1569 20.2187C18.0729 20.4389 18.1299 20.7698 18.35 20.9345C20.2491 20.4659 22.1228 18.9247 22.1228 16.8308C22.1228 15.3167 20.9665 13.9942 19.6156 13.9942Z" fill="#3F2B2E"/>
<path d="M37.9804 32.7572C31.1986 32.7572 28.7185 26.1476 28.7185 21.0509C28.7185 13.5114 33.3674 11.0672 36.9485 11.0672C43.5234 11.0672 46.0367 17.1958 46.0367 22.8767C46.0367 29.6584 42.1125 32.7572 37.9804 32.7572ZM37.5325 10.0007C30.4407 10.0007 25.2767 15.2682 25.2767 22.1531C25.2767 28.3507 29.8896 33.8249 37.5325 33.8249C44.1778 33.8249 49.4798 28.7627 49.4798 21.8087C49.4798 15.7504 45.4855 10.0007 37.5325 10.0007Z" fill="#3F2B2E"/>
<path d="M69.0309 28.5087C68.2611 30.3 66.7455 32.6125 63.2753 32.6125C59.7227 32.6125 56.0591 29.7488 56.0591 23.8821C56.0591 18.2357 59.5835 15.757 63.0819 15.757C66.7184 15.757 67.9571 18.0427 68.4244 19.7787C68.6175 19.9717 69.1133 19.9432 69.3067 19.7231C69.0309 17.6845 68.9771 16.0598 68.9218 15.4262C68.6731 15.3709 68.4812 15.3438 68.1504 15.2614C66.8547 14.9303 64.9557 14.6549 63.3845 14.6549C60.6032 14.6549 57.8219 15.453 55.7837 16.9956C53.7451 18.5653 52.3134 21.0725 52.3134 24.2941C52.3134 27.9036 53.9938 30.4093 56.2239 31.8695C58.2071 33.1637 60.5478 33.7147 63.2753 33.7147C65.0651 33.7147 66.9656 33.246 67.5722 33.0527C67.8747 32.9704 68.2043 32.8595 68.5351 32.8057C68.9218 32.2815 69.6645 30.4647 69.8576 28.6195C69.7199 28.371 69.2796 28.2615 69.0309 28.5087Z" fill="#3F2B2E"/>
<path d="M75.5632 31.8695C77.5461 33.1636 79.8872 33.7147 82.6143 33.7147C84.4042 33.7147 86.3047 33.246 86.9097 33.0527C87.214 32.9704 87.5433 32.8595 87.8744 32.8057C88.2608 32.2815 89.0038 30.4647 89.1969 28.6195C89.0592 28.3708 88.6186 28.2615 88.3699 28.5087C87.6001 30.3 86.0845 32.6124 82.6143 32.6124C79.0617 32.6124 75.3981 29.7488 75.3981 23.8821C75.3981 18.2357 78.9225 15.757 82.4213 15.757C86.0578 15.757 87.2964 18.0427 87.7649 19.7787C87.9568 19.9717 88.4541 19.9432 88.6457 19.7231C88.3699 17.6845 88.3164 16.0598 88.2608 15.4262C88.0121 15.3709 87.8205 15.3438 87.4895 15.2614C86.194 14.9303 84.2947 14.6549 82.7253 14.6549C79.9425 14.6549 77.1612 15.453 75.1227 16.9956C73.0845 18.5653 71.6525 21.0725 71.6525 24.2941C71.6525 27.9036 73.3328 30.4093 75.5632 31.8695Z" fill="#3F2B2E"/>
<path d="M99.1245 33.3561C99.3449 33.2469 99.3717 32.751 99.1801 32.5579L98.5733 32.4754C97.2793 32.3106 97.0306 32.2268 97.0306 29.3078V19.0618C97.0306 16.1428 97.2793 16.0604 98.5733 15.8941L99.1801 15.8117C99.3717 15.6184 99.3449 15.1243 99.1245 15.0133C97.9114 15.0675 96.6728 15.0957 95.4612 15.0957C94.194 15.0957 92.9554 15.0675 91.7423 15.0133C91.5219 15.1243 91.4951 15.6184 91.6885 15.8117L92.2935 15.8941C93.589 16.0604 93.8361 16.1428 93.8361 19.0618V29.3078C93.8361 32.2268 93.589 32.3106 92.2935 32.4754L91.6885 32.5579C91.4951 32.751 91.5219 33.2469 91.7423 33.3561C92.9554 33.3023 94.2493 33.2738 95.4612 33.2738C96.6728 33.2738 97.9114 33.3023 99.1245 33.3561Z" fill="#3F2B2E"/>
<path d="M108.596 16.1975C109.313 16.1975 109.34 16.2532 109.34 17.4094V29.3072C109.34 32.2278 109.093 32.31 107.797 32.4194L106.64 32.5587C106.448 32.695 106.475 33.2461 106.697 33.3571C108.459 33.3016 109.753 33.2746 110.965 33.2746C112.177 33.2746 113.415 33.3016 115.014 33.3571C115.235 33.2461 115.262 32.7504 115.069 32.5587L114.077 32.4479C112.782 32.31 112.535 32.2278 112.535 29.3072V17.4094C112.535 16.2532 112.562 16.1975 113.279 16.1975H114.849C117.795 16.1975 118.319 16.7205 118.677 18.8697C118.924 19.0612 119.393 19.0074 119.531 18.7858C119.448 17.905 119.668 15.5357 119.944 14.4062C119.888 14.3238 119.751 14.27 119.586 14.27C119.475 14.27 119.366 14.3238 119.255 14.3794C118.924 15.0127 118.511 15.0951 117.161 15.0951H105.924C104.052 15.0951 103.667 15.0684 103.528 14.3794C103.473 14.297 103.363 14.27 103.253 14.27C103.116 14.27 103.005 14.297 102.951 14.3794C102.757 15.3438 102.344 17.0513 101.875 18.5386C101.986 18.814 102.564 18.8964 102.757 18.7316C103.776 16.5001 104.52 16.1975 107.053 16.1975H108.596Z" fill="#3F2B2E"/>
<path d="M128.124 25.2871H125.259C124.599 25.2871 124.516 25.2871 124.819 24.4873L125.975 21.2658C126.471 19.9718 126.693 19.2825 126.802 19.0895H126.857C126.995 19.2825 127.16 19.8055 127.629 21.2658L128.785 24.5712C129.005 25.2317 128.896 25.2871 128.124 25.2871ZM136.579 32.5586L136.166 32.4747C134.762 32.2277 134.624 32.0343 133.991 30.1891L130.025 18.6492C129.585 17.4091 129.225 16.1151 128.785 14.875C128.674 14.737 128.538 14.6549 128.318 14.6549C128.262 14.6549 127.353 15.7841 126.389 15.9771C126.471 16.4459 126.224 17.1066 125.866 17.9886L122.093 27.7928C121.513 29.2801 121.073 30.4363 120.742 31.1522C120.33 32.0628 120.026 32.3099 119.228 32.4208L118.401 32.5586C118.208 32.8056 118.236 33.2191 118.43 33.3569C119.392 33.3015 120.246 33.2745 121.156 33.2745C122.285 33.3015 123.194 33.3015 124.076 33.3569C124.296 33.246 124.323 32.7502 124.13 32.5586L123.331 32.4208C122.313 32.2815 122.202 32.1992 122.754 30.5756L123.883 27.2701C124.13 26.5256 124.103 26.5256 124.819 26.5256H128.482C129.254 26.5256 129.336 26.5256 129.612 27.2701L130.906 31.0159C131.263 32.1992 131.181 32.3654 130.19 32.4747L129.585 32.5586C129.418 32.7217 129.445 33.2191 129.667 33.3569C130.63 33.3283 131.842 33.2745 133.026 33.2745C134.46 33.2745 135.478 33.3015 136.607 33.3569C136.799 33.2191 136.799 32.7502 136.579 32.5586Z" fill="#3F2B2E"/>
<path d="M157.718 15.0133C156.726 15.0672 156.01 15.0957 154.826 15.0957C153.752 15.0957 152.733 15.0672 151.659 15.0133C151.384 15.0957 151.355 15.6184 151.604 15.8117L152.238 15.8941C152.926 16.0048 153.367 16.1696 153.614 16.5831C154.11 17.4097 154.137 19.9423 154.137 22.0092V27.38C154.137 27.8204 154.137 27.9581 154.054 28.0405C153.778 27.8757 151.218 24.9566 150.061 23.6896L147.307 20.7137C146.342 19.6684 143.341 16.1981 142.872 15.0133C142.212 15.0672 141.55 15.0957 140.972 15.0957C140.283 15.0957 138.768 15.1243 137.722 15.0133C137.446 15.0957 137.419 15.6469 137.612 15.8117L138.026 15.8941C138.411 15.9762 139.182 16.1981 139.484 16.445C140.422 17.2434 140.393 17.6855 140.393 19.8331V26.3602C140.393 28.5377 140.393 30.9327 140.036 31.7862C139.842 32.2266 139.347 32.3375 138.824 32.42L138.217 32.5577C137.997 32.7509 138.053 33.2198 138.273 33.356C139.236 33.302 139.98 33.2736 141.138 33.2736C142.183 33.2736 143.259 33.302 144.277 33.356C144.553 33.2736 144.58 32.7509 144.332 32.5577L143.726 32.4752C143.039 32.3659 142.57 32.1997 142.321 31.7862C141.854 30.9596 141.825 28.427 141.825 26.3602V20.9892C141.825 19.5303 141.825 19.2263 141.909 19.2263C142.376 19.6398 143.259 20.6866 145.048 22.6982L151.493 30.0519C153.476 32.3105 154.276 33.2467 154.716 33.8248C155.046 33.8518 155.432 33.7423 155.652 33.4398C155.57 32.8063 155.57 29.4184 155.57 28.5917V22.0092C155.57 19.8331 155.57 17.4365 155.955 16.5831C156.148 16.1425 156.615 16.0333 157.139 15.9495L157.773 15.8117C157.993 15.6184 157.938 15.1511 157.718 15.0133Z" fill="#3F2B2E"/>
<path d="M173.94 29.1983C172.975 31.4284 172.368 32.2266 168.872 32.1727C166.558 32.1727 166.088 31.9511 165.759 31.5662C165.346 31.0974 165.29 30.1074 165.29 28.7011V25.2039C165.29 24.515 165.317 24.4595 165.951 24.4595H167.273C169.67 24.4595 170.138 24.515 170.33 25.6725L170.523 26.7734C170.743 26.9398 171.268 26.9398 171.406 26.7464C171.377 25.8644 171.323 24.9012 171.323 23.8544C171.323 22.8359 171.377 21.8429 171.406 21.1001C171.268 20.88 170.743 20.88 170.523 21.0731L170.33 22.0091C170.138 23.194 169.67 23.2208 167.273 23.2208H165.951C165.317 23.2208 165.29 23.194 165.29 22.4779V17.8232C165.29 16.2535 165.29 16.1978 166.475 16.1978H168.32C169.065 16.1978 169.89 16.2535 170.523 16.4453C171.406 16.6652 171.819 17.3544 172.259 18.9524C172.479 19.1172 173.031 19.0618 173.14 18.8417C172.975 17.6569 172.809 15.4807 172.7 15.0133C172.341 15.0675 170.743 15.0957 168.981 15.0957H163.721C162.509 15.0957 161.215 15.0675 160.168 15.0133C159.946 15.1243 159.919 15.6184 160.113 15.8117L160.553 15.8671C161.849 16.0604 162.096 16.1425 162.096 19.0618V29.3075C162.096 32.2266 161.849 32.3105 160.553 32.4483L159.535 32.5577C159.341 32.7509 159.37 33.2467 159.589 33.356C160.829 33.302 162.509 33.2736 163.721 33.2736H166.862C170.083 33.2736 172.452 33.302 173.663 33.356C174.049 32.6131 174.656 30.5192 174.82 29.3629C174.656 29.0875 174.187 29.0051 173.94 29.1983Z" fill="#3F2B2E"/>
<path d="M75.3258 44.4001C75.1328 44.5256 74.3668 44.6479 73.937 44.6479C73.882 44.6491 73.8034 44.6486 73.7249 44.6461V44.6411C73.7249 43.1971 73.7288 41.4404 73.7383 41.2449C73.7389 41.2264 73.7404 41.2113 73.7418 41.1985C73.8064 41.1783 73.9179 41.1539 74.0209 41.1539C74.711 41.1539 75.1792 41.3029 75.5394 41.6367C75.8628 41.9363 76.0347 42.4187 76.0347 43.0318C76.0347 43.6669 75.6635 44.1583 75.3258 44.4001ZM79.2063 49.0915C79.1081 49.0915 78.7535 49.0558 78.2993 48.6015C78.0119 48.3144 77.7285 47.972 77.32 47.42C76.9473 46.9152 76.0627 45.5287 75.7991 45.0158C76.0288 44.9195 76.328 44.7723 76.5306 44.5941C76.8158 44.3692 77.4111 43.9015 77.4111 42.8253C77.4111 42.0841 77.0615 41.4074 76.4529 40.968C75.9413 40.5968 75.3538 40.4385 74.4873 40.4385C74.2612 40.4385 74.0221 40.4549 73.7764 40.4718C73.2409 40.5093 72.6427 40.5007 72.3048 40.4718C72.1162 40.4551 71.8994 40.4239 71.7191 40.4971C71.6388 40.5295 71.5668 40.5867 71.5269 40.6634C71.4615 40.7898 71.5067 40.9505 71.6156 41.0365C71.7087 41.1101 71.8286 41.1393 71.9422 41.1646C72.3369 41.2304 72.339 41.267 72.3619 41.6173L72.3676 41.7066C72.397 42.1543 72.4455 42.903 72.4455 44.6961C72.4455 46.8878 72.411 47.8456 72.3771 48.4887C72.3429 48.9671 72.2629 48.9826 71.9547 49.0427C71.7441 49.0911 71.4814 49.1515 71.4814 49.4147C71.4814 49.4972 71.5168 49.7657 71.9707 49.7657C72.0859 49.7657 72.2269 49.7535 72.3905 49.7387C72.6011 49.7196 72.8527 49.6967 73.1404 49.6967C73.3896 49.6967 73.5782 49.7176 73.7433 49.736C73.89 49.7522 74.0209 49.7657 74.1571 49.7657C74.6619 49.7657 74.6875 49.4734 74.6875 49.4147C74.6875 49.1295 74.3853 49.0745 74.2681 49.0533C73.8709 48.9868 73.8439 48.9055 73.821 48.8365C73.7954 48.7591 73.7389 48.3222 73.7249 47.6604C73.7118 47.1555 73.7234 45.725 73.7383 45.3606C74.036 45.3571 74.1726 45.3854 74.2612 45.4115C74.3493 45.4332 74.4373 45.516 74.5527 45.643C74.6143 45.7179 74.8365 46.0617 75.0721 46.4256C75.526 47.1284 76.1483 48.091 76.5996 48.6664C77.0699 49.2505 77.6868 49.8479 78.697 49.8479C78.9772 49.8479 79.1834 49.8241 79.3083 49.7771C79.3904 49.7461 79.6397 49.653 79.6397 49.4282C79.6397 49.261 79.4909 49.0915 79.2063 49.0915Z" fill="#3F2B2E"/>
<path d="M87.8869 48.7279C87.4737 49.0316 87.0489 49.1735 86.5516 49.1735C85.5583 49.1735 84.6969 48.6943 83.9919 47.7498C83.4115 46.9673 83.0367 45.8871 83.0367 44.9992C83.0367 43.7573 83.3901 42.6353 84.0059 41.9199C84.4107 41.4556 85.2573 40.9754 85.9736 40.9754C86.8782 40.9754 87.6126 41.3074 88.2186 41.9895C88.9765 42.8495 89.4474 44.0872 89.4474 45.2191C89.4474 46.9476 88.6404 48.1654 87.8869 48.7279ZM86.2493 40.2597C85.2656 40.2597 84.1614 40.6265 83.4395 41.1917C82.1607 42.1647 81.5649 43.37 81.5649 44.9853C81.5649 47.6734 83.7352 49.9442 86.3035 49.9442C86.9008 49.9442 87.5508 49.794 88.182 49.51C89.1937 49.0634 90.9058 47.6543 90.9058 45.2053C90.9058 42.5243 88.7739 40.2597 86.2493 40.2597Z" fill="#3F2B2E"/>
<path d="M101.414 40.4762C101.253 40.4911 101.073 40.5075 100.905 40.5075C100.766 40.5075 100.556 40.4902 100.348 40.4739C100.123 40.456 99.8997 40.4385 99.75 40.4385C99.3009 40.4385 99.2342 40.65 99.2342 40.7754C99.2342 40.9661 99.3818 41.092 99.6584 41.1459C100.134 41.2687 100.156 41.3177 100.156 41.4085C100.156 41.5837 100.054 41.9761 99.8946 42.4103C99.6929 42.9812 98.4543 46.1652 97.9305 47.4718C97.3685 46.0886 96.0097 42.5347 95.7896 41.8747C95.7039 41.6161 95.6569 41.4737 95.6569 41.3394C95.6569 41.3044 95.7221 41.2187 95.9226 41.1926C96.0472 41.1732 96.4274 41.1149 96.4274 40.7891C96.4274 40.7104 96.3899 40.4524 95.9116 40.4524C95.8095 40.4524 95.6495 40.4619 95.4639 40.4739C95.2235 40.489 94.9371 40.5075 94.6878 40.5075C94.6069 40.5075 94.4281 40.4953 94.2374 40.4831C94.0048 40.4682 93.7561 40.4524 93.6282 40.4524C93.1502 40.4524 93.1124 40.7104 93.1124 40.7891C93.1124 40.9049 93.1743 41.1093 93.5937 41.1797C93.8727 41.2181 94.0474 41.3656 94.177 41.6729C94.7699 43.0683 96.7742 48.2418 97.2094 49.5319L97.2344 49.6183C97.276 49.7609 97.3444 49.9993 97.6032 49.9993C97.7779 49.9993 97.915 49.8502 97.9474 49.6414C97.9834 49.4968 98.1637 48.9873 98.4861 48.1773C99.1036 46.6757 99.6076 45.4353 99.9951 44.4819C100.426 43.4205 100.711 42.7167 100.848 42.4062C101.334 41.3127 101.469 41.2746 101.82 41.1744C101.944 41.1432 102.275 41.0607 102.275 40.7621C102.275 40.4949 102.037 40.4219 101.414 40.4762Z" fill="#3F2B2E"/>
<path d="M123.443 40.4661C123.381 40.4661 123.296 40.4721 123.191 40.4801C122.933 40.4991 122.491 40.5117 122.078 40.4852C121.471 40.4471 121.126 40.5027 121.126 40.8031C121.126 41.0607 121.377 41.1238 121.577 41.1738C121.917 41.2615 122.088 41.3053 122.088 41.9889L122.116 44.3011C122.131 45.4513 122.147 46.6867 122.154 47.3778C120.627 45.6682 117.369 41.9707 116.546 40.9076C116.344 40.6494 116.233 40.5075 116.029 40.5075C115.753 40.5075 115.43 40.4854 115.15 40.4665C114.925 40.4516 114.727 40.4387 114.598 40.4387C114.228 40.4387 114.041 40.5563 114.041 40.7892C114.041 41.0967 114.366 41.1435 114.515 41.1646C114.823 41.2161 114.942 41.2737 115.075 41.3761C115.137 41.4245 115.224 41.4915 115.224 42.1789C115.224 43.0552 115.112 47.7172 115.074 48.1821C115.011 48.9099 114.937 48.9307 114.517 49.0491C114.333 49.0989 114.082 49.167 114.082 49.4282C114.082 49.5823 114.167 49.7657 114.57 49.7657C114.606 49.7657 114.682 49.7586 114.783 49.7474C115.121 49.711 115.774 49.6986 116.175 49.7381C116.944 49.8134 117.081 49.6209 117.081 49.4282C117.081 49.1498 116.809 49.0756 116.65 49.0319C116.39 48.9578 116.185 48.838 116.136 48.7286C116.045 48.5345 116.007 48.2273 116.007 47.6674C116.007 47.3667 116.018 46.0329 116.029 44.7231C116.037 43.8653 116.043 43.0169 116.047 42.4755C116.799 43.3533 117.724 44.4239 118.627 45.4683C120.099 47.1719 121.49 48.7812 121.995 49.3975L122.052 49.4675C122.169 49.6108 122.283 49.7642 122.419 49.8898C122.519 49.9817 122.671 50.0338 122.802 49.9752C122.906 49.9285 122.966 49.8176 122.988 49.7093C123.014 49.5825 123.001 49.4505 122.996 49.3222C122.979 48.8662 122.984 48.3825 122.989 47.7733C122.993 47.4129 122.996 47.0083 122.996 46.5398C122.996 45.078 123.027 42.1628 123.085 41.731C123.132 41.418 123.152 41.2884 123.511 41.169L123.573 41.1467C123.694 41.1048 123.918 41.0269 123.918 40.7892C123.918 40.6419 123.836 40.4661 123.443 40.4661Z" fill="#3F2B2E"/>
<path d="M134.668 47.1517C134.407 47.1517 134.327 47.4333 134.289 47.5734C134.104 48.1258 133.781 48.5419 133.325 48.8115C132.948 49.04 132.461 49.1464 131.792 49.1464C131.133 49.1464 130.195 48.8998 129.545 48.2094C128.972 47.5925 128.305 46.3889 128.305 45.0263C128.305 43.7453 128.783 42.5594 129.253 42.0519C129.693 41.5897 130.418 40.9754 131.627 40.9754C132.41 40.9754 133.183 41.2285 133.611 41.6331C133.812 41.7977 134.077 42.1911 134.175 42.6073C134.262 42.9071 134.423 42.9696 134.543 42.9696C134.745 42.9696 134.88 42.7789 134.88 42.4948C134.88 42.447 134.874 42.3621 134.867 42.2574C134.851 42.0368 134.826 41.7039 134.853 41.4636C134.853 41.296 134.76 41.1265 134.614 41.0307L134.604 41.0245C134.106 40.7287 132.887 40.2597 131.738 40.2597C130.528 40.2597 129.271 40.7169 128.457 41.4537C127.355 42.4517 126.82 43.6702 126.82 45.1777C126.82 46.3954 127.437 47.7567 128.035 48.3692C128.757 49.1027 129.83 49.9442 131.738 49.9442C132.976 49.9442 133.834 49.5445 134.602 49.0949C134.703 49.0186 134.775 48.9156 134.809 48.7812C134.816 48.7372 134.834 48.6518 134.855 48.5459C134.937 48.1419 135.004 47.7927 135.004 47.6124C135.004 47.2939 134.836 47.1517 134.668 47.1517Z" fill="#3F2B2E"/>
<path d="M111.131 47.8463C111.024 47.7998 110.904 47.8278 110.811 47.8936C110.708 47.967 110.632 48.0782 110.561 48.1806L110.483 48.2916C110.377 48.4435 110.199 48.6991 110.118 48.7708C109.947 48.9233 109.839 48.9674 108.541 48.9674C107.555 48.9674 107.416 48.938 107.238 48.8436C107.074 48.7606 107.007 48.523 107.007 48.4376C107.007 48.3377 107.001 48 106.994 47.5826C106.982 46.9101 106.966 46.0287 106.966 45.6043V45.5423C108.796 45.5433 108.666 45.5579 108.899 45.6245C108.963 45.6468 109.028 45.741 109.079 45.8943C109.079 45.8943 109.127 46.0139 109.127 46.0142C109.167 46.1117 109.206 46.2185 109.289 46.2881C109.382 46.3657 109.538 46.3762 109.641 46.3128C109.717 46.2667 109.773 46.1683 109.8 46.0856C109.835 45.9824 109.832 45.8764 109.814 45.7702C109.802 45.695 109.765 45.3345 109.788 45.0961C109.799 44.9962 109.815 44.8778 109.829 44.7678C109.854 44.5912 109.873 44.4331 109.873 44.3799C109.873 44.0596 109.67 43.9742 109.549 43.9742C109.328 43.9742 109.223 44.1868 109.184 44.2657C109.03 44.5732 108.946 44.6303 108.918 44.6455C108.866 44.678 108.775 44.7029 108.132 44.7029H106.966V41.5046C106.966 41.3731 106.971 41.2934 106.976 41.2447C107.451 41.2217 109.264 41.2291 109.585 41.2886C109.693 41.3065 109.855 41.3332 110.111 41.9404C110.151 42.0359 110.201 42.14 110.281 42.2094C110.37 42.287 110.515 42.3152 110.622 42.2584C110.716 42.2086 110.764 42.1019 110.783 42.0019C110.798 41.927 110.8 41.8419 110.784 41.767C110.734 41.5376 110.715 41.2512 110.702 41.0614L110.69 40.9005C110.642 40.6033 110.516 40.4524 110.315 40.4524C110.257 40.4524 110.197 40.456 110.119 40.4605C109.991 40.4682 109.811 40.4799 109.491 40.4799C109.222 40.4799 108.614 40.4864 107.988 40.4929C107.326 40.4997 106.644 40.5075 106.325 40.5075C106.093 40.5075 105.9 40.4953 105.724 40.4846C105.564 40.4751 105.416 40.4662 105.266 40.4662C105.002 40.4662 104.819 40.5989 104.819 40.7892C104.819 40.899 104.871 41.0935 105.211 41.162C105.546 41.236 105.658 41.2613 105.658 41.9999C105.658 44.9109 105.644 46.231 105.589 48.4186C105.579 48.8802 105.435 48.9862 105.028 49.0539C104.88 49.0808 104.571 49.1372 104.571 49.4147C104.571 49.4734 104.595 49.7657 105.074 49.7657C105.131 49.7657 105.269 49.7566 105.444 49.7444C105.727 49.7241 106.112 49.6967 106.394 49.6967C106.921 49.6967 107.544 49.7089 108.206 49.7217C108.964 49.7363 109.771 49.7518 110.548 49.7518C110.667 49.7518 110.834 49.7013 110.955 49.4612C111.022 49.3283 111.09 49.0777 111.167 48.7886C111.203 48.6571 111.239 48.5223 111.273 48.4073C111.3 48.3186 111.325 48.2296 111.32 48.136C111.314 48.0176 111.246 47.8986 111.131 47.8463Z" fill="#3F2B2E"/>
<path d="M144.39 47.8463C144.283 47.7998 144.163 47.8278 144.07 47.8936C143.967 47.967 143.892 48.0782 143.82 48.1806L143.742 48.2916C143.636 48.4435 143.458 48.6991 143.377 48.7708C143.206 48.9233 143.099 48.9674 141.8 48.9674C140.814 48.9674 140.675 48.938 140.497 48.8436C140.333 48.7606 140.266 48.523 140.266 48.4376C140.266 48.3377 140.26 48 140.253 47.5826C140.241 46.9101 140.225 46.0287 140.225 45.6043V45.5423C142.055 45.5433 141.925 45.5579 142.159 45.6245C142.222 45.6468 142.287 45.741 142.338 45.8943C142.338 45.8943 142.386 46.0139 142.387 46.0142C142.426 46.1117 142.466 46.2185 142.549 46.2881C142.641 46.3657 142.797 46.3762 142.9 46.3128C142.976 46.2667 143.032 46.1683 143.059 46.0856C143.095 45.9824 143.091 45.8764 143.073 45.7702C143.061 45.695 143.024 45.3345 143.047 45.0961C143.058 44.9962 143.074 44.8778 143.089 44.7678C143.113 44.5912 143.132 44.4331 143.132 44.3799C143.132 44.0596 142.929 43.9742 142.809 43.9742C142.587 43.9742 142.482 44.1868 142.443 44.2657C142.289 44.5732 142.205 44.6303 142.178 44.6455C142.126 44.678 142.035 44.7029 141.391 44.7029H140.225V41.5046C140.225 41.3731 140.23 41.2934 140.235 41.2447C140.71 41.2217 142.524 41.2291 142.844 41.2886C142.952 41.3065 143.114 41.3332 143.37 41.9404C143.411 42.0359 143.46 42.14 143.54 42.2094C143.629 42.287 143.774 42.3152 143.881 42.2584C143.975 42.2086 144.023 42.1019 144.042 42.0019C144.057 41.927 144.059 41.8419 144.043 41.767C143.993 41.5376 143.974 41.2512 143.962 41.0614L143.949 40.9005C143.901 40.6033 143.775 40.4524 143.574 40.4524C143.516 40.4524 143.456 40.456 143.378 40.4605C143.251 40.4682 143.07 40.4799 142.75 40.4799C142.482 40.4799 141.874 40.4864 141.247 40.4929C140.585 40.4997 139.903 40.5075 139.585 40.5075C139.353 40.5075 139.16 40.4953 138.983 40.4846C138.823 40.4751 138.676 40.4662 138.525 40.4662C138.262 40.4662 138.078 40.5989 138.078 40.7892C138.078 40.899 138.13 41.0935 138.47 41.162C138.805 41.236 138.918 41.2613 138.918 41.9999C138.918 44.9109 138.904 46.231 138.849 48.4186C138.838 48.8802 138.694 48.9862 138.287 49.0539C138.139 49.0808 137.831 49.1372 137.831 49.4147C137.831 49.4734 137.855 49.7657 138.333 49.7657C138.391 49.7657 138.529 49.7566 138.703 49.7444C138.986 49.7241 139.371 49.6967 139.653 49.6967C140.18 49.6967 140.803 49.7089 141.466 49.7217C142.223 49.7363 143.03 49.7518 143.807 49.7518C143.926 49.7518 144.094 49.7013 144.214 49.4612C144.282 49.3283 144.349 49.0777 144.427 48.7886C144.462 48.6571 144.498 48.5223 144.532 48.4073C144.559 48.3186 144.584 48.2296 144.579 48.136C144.573 48.0176 144.505 47.8986 144.39 47.8463Z" fill="#3F2B2E"/>
<path d="M66.0899 45.1699C65.7425 45.4061 65.1437 45.59 64.2507 45.2607C64.2492 44.216 64.2433 42.7971 64.2394 41.9186L64.254 41.0941C64.3715 41.0662 64.6068 41.0304 64.8081 41.0304C65.3876 41.0304 65.8213 41.2289 66.2645 41.6989C66.8476 42.2822 66.8776 43.1752 66.8776 43.3483C66.8776 44.379 66.4846 44.9014 66.0899 45.1699ZM67.4865 41.2925C66.9151 40.6616 65.998 40.3285 64.8358 40.3285C64.7031 40.3285 64.3985 40.3534 64.0969 40.3792C63.8622 40.3989 63.6296 40.4189 63.491 40.4246C63.1236 40.4385 62.7283 40.4524 62.5248 40.4524C62.2541 40.4524 62.05 40.6033 62.05 40.8031C62.05 40.9951 62.1955 41.1164 62.4977 41.1664C62.8249 41.2015 62.83 41.3047 62.8351 41.3931C62.86 41.6429 62.9305 43.4619 62.9305 44.6C62.9305 46.7186 62.9166 48.3219 62.9026 48.642C62.8844 48.9433 62.8556 48.9731 62.5132 49.0417C62.3936 49.0673 62.0765 49.1342 62.0765 49.4145C62.0765 49.5403 62.142 49.7518 62.5792 49.7518C62.6453 49.7518 62.7449 49.7429 62.8645 49.7316C63.0222 49.7161 63.2203 49.6967 63.4184 49.6967C63.7685 49.6967 64.0023 49.7176 64.2102 49.736C64.3875 49.7518 64.5476 49.7657 64.7391 49.7657C65.191 49.7657 65.2136 49.4734 65.2136 49.4145C65.2136 49.1037 64.8528 49.0564 64.7245 49.0396C64.425 48.9912 64.3378 48.9578 64.3045 48.5295C64.2798 48.183 64.2531 47.3052 64.2516 45.883C64.4812 46.0335 65.7621 46.5276 66.9996 45.72C67.8586 45.159 68.2673 44.3471 68.2673 43.2656C68.2673 42.5329 67.9732 41.7931 67.4865 41.2925Z" fill="#3F2B2E"/>
<path d="M41.8008 47.8463C41.6934 47.7998 41.5735 47.8278 41.4807 47.8936C41.3775 47.967 41.3019 48.0782 41.2302 48.1806L41.1526 48.2916C41.0461 48.4435 40.8685 48.6991 40.787 48.7708C40.6163 48.9233 40.5092 48.9674 39.2104 48.9674C38.2243 48.9674 38.0857 48.938 37.9076 48.8436C37.7434 48.7606 37.6764 48.523 37.6764 48.4376C37.6764 48.3377 37.6705 48 37.663 47.5826C37.6514 46.9101 37.6354 46.0287 37.6354 45.6043V45.5423C39.4657 45.5433 39.3354 45.5579 39.5689 45.6245C39.6325 45.6468 39.6971 45.741 39.7486 45.8943C39.7486 45.8943 39.7967 46.0139 39.797 46.0142C39.8363 46.1117 39.8762 46.2185 39.9592 46.2881C40.0514 46.3657 40.2072 46.3762 40.3108 46.3128C40.386 46.2667 40.4419 46.1683 40.4696 46.0856C40.5047 45.9824 40.5011 45.8764 40.4836 45.7702C40.4711 45.695 40.4345 45.3345 40.4574 45.0961C40.4681 44.9962 40.4845 44.8778 40.4991 44.7678C40.5232 44.5912 40.5422 44.4331 40.5422 44.3799C40.5422 44.0596 40.339 43.9742 40.2188 43.9742C39.9972 43.9742 39.8922 44.1868 39.8533 44.2657C39.6995 44.5732 39.6156 44.6303 39.5879 44.6455C39.5359 44.678 39.4448 44.7029 38.8014 44.7029H37.6354V41.5046C37.6354 41.3731 37.6404 41.2934 37.6455 41.2447C38.1202 41.2217 39.9339 41.2291 40.2545 41.2886C40.3622 41.3065 40.5246 41.3332 40.7805 41.9404C40.8209 42.0359 40.8706 42.14 40.95 42.2094C41.0393 42.287 41.185 42.3152 41.2915 42.2584C41.3852 42.2086 41.4334 42.1019 41.4527 42.0019C41.467 41.927 41.4697 41.8419 41.4533 41.767C41.4033 41.5376 41.3843 41.2512 41.3718 41.0614L41.3593 40.9005C41.3117 40.6033 41.1856 40.4524 40.9845 40.4524C40.9265 40.4524 40.8664 40.456 40.7885 40.4605C40.6609 40.4682 40.4803 40.4799 40.1596 40.4799C39.8922 40.4799 39.2839 40.4864 38.6575 40.4929C37.9956 40.4997 37.3132 40.5075 36.9949 40.5075C36.7629 40.5075 36.5702 40.4953 36.3932 40.4846C36.2331 40.4751 36.0859 40.4662 35.9354 40.4662C35.6721 40.4662 35.4886 40.5989 35.4886 40.7892C35.4886 40.899 35.54 41.0935 35.8803 41.162C36.215 41.236 36.328 41.2613 36.328 41.9999C36.328 44.9109 36.314 46.231 36.259 48.4186C36.2489 48.8802 36.104 48.9862 35.6977 49.0539C35.5496 49.0808 35.2408 49.1372 35.2408 49.4147C35.2408 49.4734 35.2649 49.7657 35.7432 49.7657C35.8012 49.7657 35.9389 49.7566 36.1135 49.7444C36.3961 49.7241 36.7814 49.6967 37.0636 49.6967C37.5905 49.6967 38.2133 49.7089 38.8758 49.7217C39.6331 49.7363 40.4411 49.7518 41.2177 49.7518C41.3367 49.7518 41.5039 49.7013 41.6244 49.4612C41.6916 49.3283 41.7594 49.0777 41.8371 48.7886C41.8722 48.6571 41.9081 48.5223 41.9427 48.4073C41.9691 48.3186 41.9941 48.2296 41.9894 48.136C41.9834 48.0176 41.9153 47.8986 41.8008 47.8463Z" fill="#3F2B2E"/>
<path d="M53.9968 40.4661C53.9352 40.4661 53.8499 40.4721 53.7443 40.4801C53.4861 40.4991 53.0452 40.5117 52.6314 40.4852C52.0246 40.4471 51.6793 40.5027 51.6793 40.8031C51.6793 41.0607 51.9309 41.1238 52.1311 41.1738C52.4708 41.2615 52.6418 41.3053 52.6418 41.9889L52.6695 44.3011C52.6844 45.4513 52.7002 46.6867 52.707 47.3778C51.1801 45.6682 47.922 41.9707 47.0995 40.9076C46.8978 40.6494 46.7863 40.5075 46.5825 40.5075C46.3065 40.5075 45.9837 40.4854 45.7035 40.4665C45.4789 40.4516 45.2808 40.4387 45.1517 40.4387C44.782 40.4387 44.5948 40.5563 44.5948 40.7892C44.5948 41.0967 44.9191 41.1435 45.0687 41.1646C45.3769 41.2161 45.495 41.2737 45.6285 41.3761C45.691 41.4245 45.7776 41.4915 45.7776 42.1789C45.7776 43.0552 45.666 47.7172 45.6271 48.1821C45.564 48.9099 45.4908 48.9307 45.0702 49.0491C44.8867 49.0989 44.6359 49.167 44.6359 49.4282C44.6359 49.5823 44.7204 49.7657 45.1237 49.7657C45.1597 49.7657 45.2353 49.7586 45.3364 49.7474C45.6749 49.711 46.3276 49.6986 46.7292 49.7381C47.4978 49.8134 47.6352 49.6209 47.6352 49.4282C47.6352 49.1498 47.3622 49.0756 47.203 49.0319C46.9433 48.9578 46.7387 48.838 46.6893 48.7286C46.5986 48.5345 46.5611 48.2273 46.5611 47.6674C46.5611 47.3667 46.5721 46.0329 46.5831 44.7231C46.5905 43.8653 46.5971 43.0169 46.6007 42.4755C47.3526 43.3533 48.2778 44.4239 49.1803 45.4683C50.6527 47.1719 52.0436 48.7812 52.5484 49.3975L52.6059 49.4675C52.7228 49.6108 52.8364 49.7642 52.9729 49.8898C53.0726 49.9817 53.2249 50.0338 53.3555 49.9752C53.4602 49.9285 53.5197 49.8176 53.5417 49.7093C53.5679 49.5825 53.5548 49.4505 53.55 49.3222C53.5325 48.8662 53.5375 48.3825 53.5426 47.7733C53.5461 47.4129 53.55 47.0083 53.55 46.5398C53.55 45.078 53.5806 42.1628 53.6387 41.731C53.6856 41.418 53.7056 41.2884 54.0643 41.169L54.1265 41.1467C54.2476 41.1048 54.4715 41.0269 54.4715 40.7892C54.4715 40.6419 54.3895 40.4661 53.9968 40.4661Z" fill="#3F2B2E"/>
</svg>
